<svg width="60" height="55" viewBox="0 0 60 55" fill="none" xmlns="http://www.w3.org/2000/svg">
<rect width="59.6572" height="54.106" fill="#183028"/>
<path d="M28.0476 34.1727C28.0476 27.037 33.4125 22.375 41.07 22.375C43.9161 22.375 46.7574 23.1592 48.9265 24.2701L49.8586 30.6184L48.0216 30.5882C47.112 27.8786 45.8895 25.1898 41.0395 25.1898C36.7704 25.1898 34.2259 28.6357 34.2259 34.3911C34.2259 39.8437 37.242 43.4793 41.8144 43.4793C42.8653 43.4793 43.8391 43.1796 44.3814 42.7095C44.3814 42.7095 44.3814 41.4328 44.3814 39.6253C44.3814 37.8179 44.375 37.853 42.5588 36.9333L40.7427 36.0137V35.1067H51.641L51.6571 36.0121C51.6571 36.0121 51.6891 35.9993 50.7634 36.4567C49.8377 36.9158 49.8377 37.8179 49.8377 39.6253V43.2402C47.1088 45.0477 44.7953 46.106 41.001 46.106C32.9376 46.106 28.046 41.6464 28.046 34.1743L28.0476 34.1727Z" fill="white"/>
<path d="M8.00161 45.9498V45.0477C8.00161 45.0477 8.00321 45.0381 9.82093 44.1392C11.0327 43.5388 11.6386 42.6362 11.6386 41.4312V13.4207C11.6386 11.6133 11.6322 10.7462 9.81612 9.82497L8 8.90372V8H23.23C31.7026 8 37.9836 12.5776 37.9836 20.1787C37.9836 27.7798 31.5469 32.3653 23.0215 32.3653H17.0998V41.4089C17.095 43.2402 17.0437 43.2147 18.8887 44.1312L20.7337 45.0477V45.9514H8.00161V45.9498ZM17.0966 29.6845H22.5546C27.6997 29.6845 31.6191 26.6928 31.6191 20.1771C31.6191 13.6614 27.5457 10.708 22.5546 10.708H17.0966V29.6845Z" fill="white"/>
</svg>
